<?xml version="1.0" standalone="no"?>
<!DOCTYPE svg PUBLIC "-//W3C//DTD SVG 20010904//EN"
 "http://www.w3.org/TR/2001/REC-SVG-20010904/DTD/svg10.dtd">
<svg version="1.0" xmlns="http://www.w3.org/2000/svg"
 width="300.000000pt" height="113.000000pt" viewBox="0 0 300.000000 113.000000"
 preserveAspectRatio="xMidYMid meet">
<metadata>
Created by potrace 1.10, written by Peter Selinger 2001-2011
</metadata>
<g transform="translate(0.000000,113.000000) scale(0.100000,-0.100000)"
fill="#ffffff" stroke="none">
<path d="M1235 1113 c-26 -3 -133 -23 -215 -39 -50 -10 -237 -77 -295 -106
-238 -119 -435 -329 -580 -618 -85 -171 -151 -350 -129 -350 5 0 32 59 59 131
28 72 56 135 63 141 6 6 12 16 12 23 0 22 62 134 133 241 67 103 192 239 282
307 60 47 241 135 348 172 71 23 81 25 101 12 19 -13 25 -13 49 -1 15 8 27 17
27 20 0 3 -4 2 -10 -1 -5 -3 -10 -4 -10 0 0 9 45 23 94 29 25 3 56 8 68 11 44
9 184 18 301 19 96 1 116 -1 112 -13 -4 -10 -2 -11 7 -4 14 10 19 10 108 -1
115 -14 155 -26 165 -48 10 -22 65 -34 62 -13 -2 10 21 11 63 2 35 -7 60 -18
60 -26 0 -3 10 -7 23 -7 39 -3 117 -36 110 -47 -3 -5 -1 -7 5 -3 9 5 33 -6
124 -58 68 -40 138 -94 126 -99 -10 -4 -9 -6 2 -6 16 -1 160 -147 160 -163 0
-5 12 -19 26 -30 20 -16 23 -23 12 -29 -10 -7 -8 -9 6 -9 11 0 17 -3 14 -6 -3
-3 4 -16 16 -29 12 -13 47 -73 78 -133 31 -61 59 -108 62 -106 4 2 2 -1 -3 -7
-6 -8 -5 -16 3 -25 14 -14 82 -175 88 -209 3 -20 16 -35 30 -35 11 0 -59 193
-107 297 -150 321 -348 539 -603 667 -71 36 -244 98 -307 111 -191 40 -244 44
-475 43 -129 0 -248 -3 -265 -5z m-200 -64 c-4 -5 -2 -9 4 -9 5 0 12 7 14 15
4 11 4 10 3 -2 -2 -24 -30 -23 -34 1 -3 11 0 16 7 11 6 -3 9 -11 6 -16z m920
0 c-4 -5 -2 -9 4 -9 5 0 12 8 14 18 4 15 5 15 6 0 1 -23 -17 -32 -34 -18 -16
13 -10 34 6 24 5 -3 7 -10 4 -15z"/>
<path d="M1929 980 c-13 -10 -18 -19 -11 -20 6 0 12 5 12 10 0 6 6 10 14 10 8
0 18 5 21 10 10 17 -11 11 -36 -10z"/>
<path d="M1140 913 c1 -93 24 -243 40 -253 32 -20 40 0 40 96 l0 94 310 0 310
0 0 65 0 65 -350 0 -350 0 0 -67z m667 48 c19 -1 21 -7 21 -46 l0 -45 -146 0
c-302 -1 -447 -5 -459 -13 -8 -5 -13 -29 -13 -55 0 -68 -11 -123 -23 -119 -12
4 -12 5 -24 164 -7 97 -6 113 7 116 11 3 504 1 637 -2z"/>
<path d="M1947 963 c-3 -5 -6 -51 -8 -103 l-4 -95 105 0 105 0 0 89 c0 63 -4
91 -13 94 -6 2 -10 8 -6 13 3 5 -33 9 -85 9 -49 0 -92 -3 -94 -7z m23 -17 c0
-3 -4 -8 -10 -11 -5 -3 -10 -1 -10 4 0 6 5 11 10 11 6 0 10 -2 10 -4z m143
-14 c27 -29 32 -78 12 -108 -15 -24 -21 -25 -61 -19 -24 3 -52 2 -62 -4 -29
-15 -49 14 -46 67 3 62 25 82 89 82 37 0 56 -5 68 -18z m-69 -140 c3 -5 -1 -9
-9 -9 -8 0 -15 4 -15 9 0 4 4 8 9 8 6 0 12 -4 15 -8z m-84 -12 c0 -5 -4 -10
-10 -10 -5 0 -10 5 -10 10 0 6 5 10 10 10 6 0 10 -4 10 -10z m180 0 c0 -5 -4
-10 -9 -10 -6 0 -13 5 -16 10 -3 6 1 10 9 10 9 0 16 -4 16 -10z"/>
<path d="M2095 910 c-3 -5 -1 -10 4 -10 6 0 11 5 11 10 0 6 -2 10 -4 10 -3 0
-8 -4 -11 -10z"/>
<path d="M2013 900 c-13 -5 -23 -14 -23 -20 0 -6 -4 -8 -10 -5 -6 4 -6 -3 0
-21 9 -23 8 -25 -7 -20 -14 6 -15 4 -6 -5 8 -8 19 -9 43 -1 22 8 37 8 55 0 26
-12 55 -5 55 12 0 8 -11 9 -30 5 -19 -4 -30 -3 -30 4 0 6 -11 11 -25 11 -14 0
-25 -4 -25 -10 0 -5 -4 -10 -10 -10 -5 0 -10 7 -10 16 0 13 11 15 62 12 38 -2
63 1 65 8 3 10 -9 14 -54 15 -13 1 -20 5 -17 10 6 11 -4 11 -33 -1z"/>
<path d="M2217 833 c-2 -4 -4 -33 -4 -63 0 -46 1 -48 4 -12 l4 42 53 0 c57 0
67 -5 59 -26 -4 -11 -7 -11 -20 1 -21 21 -35 18 -28 -5 4 -11 2 -20 -4 -20 -6
0 -11 9 -11 20 0 11 -7 20 -14 20 -11 0 -15 -11 -13 -40 1 -22 5 -40 9 -40 18
0 6 -21 -17 -30 -14 -5 -25 -15 -25 -21 0 -8 5 -7 16 2 13 10 17 10 25 -2 7
-11 9 -8 9 10 0 20 2 22 16 11 13 -11 16 -10 21 9 8 32 39 23 36 -11 -2 -24 1
-25 25 -19 26 7 27 11 29 78 2 55 -2 74 -14 85 -9 7 -19 12 -22 12 -3 -1 -12
1 -19 3 -7 3 -21 -2 -31 -11 -21 -19 -52 -21 -48 -4 2 13 -29 23 -36 11z m28
-13 c-3 -5 -10 -10 -16 -10 -5 0 -9 5 -9 10 0 6 7 10 16 10 8 0 12 -4 9 -10z
m85 0 c0 -5 -4 -10 -10 -10 -5 0 -10 5 -10 10 0 6 5 10 10 10 6 0 10 -4 10
-10z m46 -26 c-3 -9 -6 -33 -6 -55 0 -21 -4 -39 -10 -39 -5 0 -10 25 -10 55 0
44 3 55 16 55 11 0 14 -5 10 -16z m-46 -54 c0 -5 -4 -10 -10 -10 -5 0 -10 5
-10 10 0 6 5 10 10 10 6 0 10 -4 10 -10z m-40 -10 c0 -5 -4 -10 -10 -10 -5 0
-10 5 -10 10 0 6 5 10 10 10 6 0 10 -4 10 -10z m0 -30 c0 -5 -4 -10 -10 -10
-5 0 -10 5 -10 10 0 6 5 10 10 10 6 0 10 -4 10 -10z m90 -20 c0 -5 -7 -10 -15
-10 -8 0 -15 5 -15 10 0 6 7 10 15 10 8 0 15 -4 15 -10z"/>
<path d="M680 823 c-47 -17 -65 -67 -35 -96 12 -13 12 -17 -5 -32 -16 -14 -20
-31 -20 -79 0 -34 4 -66 8 -73 9 -14 142 -20 162 -8 6 4 10 15 7 25 -3 11 1
21 9 24 19 7 18 66 -1 66 -8 0 -15 8 -15 18 0 10 -5 23 -11 29 -9 9 -8 18 3
35 10 15 13 30 7 45 -13 35 -72 60 -109 46z m68 -29 c29 -20 28 -48 -3 -62
-36 -17 -34 -52 4 -52 25 0 29 -4 34 -35 3 -19 3 -51 0 -70 -6 -34 -6 -35 -55
-35 -32 0 -47 4 -43 11 4 6 13 8 19 6 7 -3 19 -1 27 3 8 6 16 4 21 -3 4 -6 11
-8 15 -3 4 5 2 11 -5 13 -10 4 -10 8 -1 20 10 11 10 19 1 34 -7 11 -8 19 -2
19 5 0 10 7 10 15 0 8 -4 15 -10 15 -5 0 -10 -4 -10 -10 0 -5 -8 -10 -17 -10
-15 0 -15 -1 1 -13 19 -14 19 -58 -1 -64 -12 -4 -28 70 -18 87 3 5 1 10 -4 10
-6 0 -11 -22 -11 -52 l0 -53 -21 25 c-18 23 -19 23 -9 3 9 -19 8 -23 -4 -23
-10 0 -13 -6 -9 -17 4 -11 3 -14 -5 -9 -7 4 -12 33 -12 72 l0 64 30 0 c23 0
30 4 30 20 0 12 -10 25 -24 32 -36 16 -39 34 -9 58 31 24 51 25 81 4z"/>
<path d="M673 783 c-7 -2 -13 -9 -13 -14 0 -6 9 -5 21 1 11 6 25 9 32 6 7 -2
4 -5 -5 -5 -10 -1 -18 -6 -18 -12 0 -18 43 -5 46 14 2 13 -5 17 -24 16 -15 0
-33 -3 -39 -6z"/>
<path d="M650 655 c0 -10 7 -15 18 -13 21 4 19 22 -2 26 -10 2 -16 -3 -16 -13z"/>
<path d="M1476 781 c-4 -5 3 -7 14 -4 23 6 26 13 6 13 -8 0 -17 -4 -20 -9z"/>
<path d="M1850 765 c7 -9 15 -13 17 -11 7 7 -7 26 -19 26 -6 0 -6 -6 2 -15z"/>
<path d="M508 763 c7 -3 16 -2 19 1 4 3 -2 6 -13 5 -11 0 -14 -3 -6 -6z"/>
<path d="M553 763 c9 -2 23 -2 30 0 6 3 -1 5 -18 5 -16 0 -22 -2 -12 -5z"/>
<path d="M480 730 c-3 -19 -2 -55 1 -80 l6 -45 1 53 2 52 56 0 55 0 -3 -35
c-3 -34 -18 -49 -26 -26 -2 6 1 11 7 11 20 0 12 28 -9 33 -17 4 -20 2 -15 -14
5 -14 2 -19 -13 -19 -15 0 -19 5 -15 20 4 16 2 19 -11 14 -19 -7 -21 -30 -3
-38 10 -5 10 -7 0 -12 -17 -8 -17 -28 0 -21 8 3 13 -3 13 -15 0 -14 -6 -18
-21 -15 -12 2 -22 -2 -22 -8 0 -11 20 -12 57 -4 22 6 38 23 33 36 -3 8 3 11
16 8 20 -4 21 0 20 56 -1 40 -5 56 -11 47 -8 -10 -11 -10 -15 0 -6 14 -73 17
-73 2 0 -20 -19 -9 -22 13 -3 16 -5 13 -8 -13z m80 -90 c0 -5 -7 -10 -15 -10
-8 0 -15 5 -15 10 0 6 7 10 15 10 8 0 15 -4 15 -10z m-5 -30 c3 -5 -1 -10 -10
-10 -9 0 -13 5 -10 10 3 6 8 10 10 10 2 0 7 -4 10 -10z"/>
<path d="M1465 751 c-51 -21 -71 -72 -47 -120 24 -48 64 -76 88 -62 18 10 18
10 -3 11 -31 0 -72 39 -79 75 -8 44 26 85 71 85 18 0 40 -7 47 -15 35 -39 40
-48 36 -76 -6 -36 -3 -36 15 -1 13 27 12 31 -12 59 -41 49 -74 61 -116 44z"/>
<path d="M1802 740 c-12 -12 -22 -24 -22 -27 0 -3 8 1 18 10 10 10 24 17 30
17 7 0 12 5 12 10 0 16 -14 12 -38 -10z"/>
<path d="M1808 713 c-9 -10 -18 -25 -20 -33 -6 -16 21 -70 35 -70 4 0 6 -4 3
-9 -3 -5 1 -14 9 -21 13 -11 19 -9 36 8 l20 22 -20 0 c-14 0 -19 -5 -15 -15 4
-8 1 -15 -4 -15 -20 0 -22 18 -5 36 16 16 16 16 -4 10 -25 -8 -43 12 -39 45 4
37 14 49 45 49 37 0 44 -10 24 -32 -9 -10 -11 -18 -5 -18 6 0 13 6 15 13 3 6
6 3 6 -9 1 -11 -5 -26 -11 -34 -11 -12 -10 -12 5 -1 9 7 17 22 17 33 0 11 4
16 11 12 8 -5 8 -1 0 14 -19 36 -77 44 -103 15z"/>
<path d="M1492 697 l-22 -23 30 2 c24 2 30 -2 30 -17 0 -30 -28 -34 -56 -9
-18 18 -24 20 -24 8 0 -8 8 -22 18 -30 44 -38 108 31 66 72 l-20 20 -22 -23z
m28 3 c0 -5 -5 -10 -11 -10 -5 0 -7 5 -4 10 3 6 8 10 11 10 2 0 4 -4 4 -10z"/>
<path d="M1736 657 c-15 -19 -26 -40 -26 -48 1 -8 8 0 17 16 8 17 22 38 31 48
8 9 12 17 9 17 -3 0 -17 -15 -31 -33z"/>
<path d="M2014 665 c-4 -9 -2 -21 4 -27 15 -15 44 -1 40 19 -4 23 -36 29 -44
8z m36 -11 c0 -17 -22 -14 -28 4 -2 7 3 12 12 12 9 0 16 -7 16 -16z"/>
<path d="M845 650 c-16 -6 -13 -9 15 -12 l35 -4 -25 -12 c-23 -12 -23 -12 -2
-8 12 2 22 -1 22 -7 0 -7 5 -4 11 5 5 10 10 21 9 25 -1 13 -43 21 -65 13z"/>
<path d="M1751 642 c-17 -31 -13 -40 5 -14 9 13 14 26 11 29 -3 2 -10 -4 -16
-15z"/>
<path d="M1830 649 c0 -5 5 -7 10 -4 6 3 10 8 10 11 0 2 -4 4 -10 4 -5 0 -10
-5 -10 -11z"/>
<path d="M983 643 c28 -4 39 -37 15 -45 -9 -3 -9 -6 0 -12 7 -4 14 2 18 18 8
33 -2 46 -34 45 l-27 -2 28 -4z"/>
<path d="M1387 636 c-8 -20 7 -46 27 -46 8 0 8 2 0 8 -7 4 -14 18 -16 32 -3
22 -4 23 -11 6z"/>
<path d="M1600 624 c0 -20 -4 -25 -16 -20 -9 3 -25 -1 -37 -10 -20 -15 -20
-16 -2 -9 11 4 29 7 40 7 11 -1 23 4 27 11 11 17 10 47 -2 47 -5 0 -10 -12
-10 -26z"/>
<path d="M2076 629 c-9 -11 -15 -26 -13 -32 2 -6 12 1 22 16 22 33 16 44 -9
16z"/>
<path d="M830 616 c0 -8 4 -17 9 -20 5 -4 7 3 4 14 -6 23 -13 26 -13 6z"/>
<path d="M926 614 c-20 -20 -20 -20 7 -21 12 0 16 1 9 4 -10 4 -10 8 -1 19 16
19 4 18 -15 -2z"/>
<path d="M2317 600 c-20 -10 -35 -15 -32 -10 3 4 -2 11 -11 14 -20 8 -46 -12
-37 -28 13 -20 12 -39 -3 -60 -15 -22 -19 -122 -5 -144 4 -7 6 12 3 43 -6 68
9 104 59 149 35 32 55 40 134 49 17 2 8 4 -20 5 -31 1 -64 -6 -88 -18z m-47
-20 c0 -5 -4 -10 -10 -10 -5 0 -10 5 -10 10 0 6 5 10 10 10 6 0 10 -4 10 -10z"/>
<path d="M1508 603 c7 -3 16 -2 19 1 4 3 -2 6 -13 5 -11 0 -14 -3 -6 -6z"/>
<path d="M2485 593 c17 -8 37 -22 46 -29 13 -12 18 -12 34 0 17 12 17 16 6 30
-12 14 -16 15 -30 2 -14 -12 -20 -12 -41 -1 -14 8 -29 14 -35 14 -5 0 4 -7 20
-16z m85 -13 c0 -5 -7 -10 -15 -10 -8 0 -15 5 -15 10 0 6 7 10 15 10 8 0 15
-4 15 -10z"/>
<path d="M1726 569 c-8 -41 -8 -49 2 -49 4 0 8 18 9 40 3 48 -2 52 -11 9z"/>
<path d="M2364 593 c-39 -7 -100 -69 -113 -113 -19 -65 -6 -117 43 -167 72
-71 160 -71 232 1 52 51 65 110 40 171 -18 43 -14 59 5 23 7 -12 13 -48 13
-79 1 -44 -5 -64 -26 -96 -31 -46 -97 -83 -149 -83 -48 1 -111 32 -140 69
l-25 32 0 -40 c1 -46 10 -59 30 -42 12 10 20 9 39 -4 43 -28 117 -30 172 -6
52 23 67 21 41 -5 -13 -12 -14 -19 -5 -30 15 -18 20 -18 13 1 -4 8 -2 15 4 15
20 0 18 -25 -5 -59 -27 -40 -31 -121 -7 -161 l15 -25 -7 25 c-12 44 -11 95 1
107 10 9 14 0 18 -40 2 -28 10 -53 16 -55 6 -2 11 -9 11 -16 0 -7 16 -13 38
-14 l37 -2 -31 15 c-82 42 -85 168 -3 210 32 17 132 17 121 1 -3 -5 3 -6 14
-2 10 4 21 8 24 9 3 1 6 -2 7 -8 1 -5 -5 -9 -14 -7 -13 3 -11 -3 6 -31 37 -60
21 -134 -36 -169 -23 -14 -23 -14 19 -12 74 3 74 3 50 20 -15 10 -20 20 -14
27 13 18 15 103 2 127 -19 36 4 46 30 13 16 -19 21 -22 15 -8 -4 11 -8 28 -9
37 -1 10 -5 21 -9 25 -10 9 -57 10 -51 1 7 -11 2 -10 -42 8 -46 19 -117 11
-145 -17 -24 -24 -25 -24 -32 1 -3 12 1 24 11 29 14 8 15 14 6 28 -9 14 -8 25
4 48 22 41 21 131 -2 174 -12 22 -21 30 -25 22 -6 -9 -12 -7 -22 5 -32 38
-104 59 -165 47z m26 -23 c-11 -7 -7 -10 18 -10 21 0 31 4 27 11 -8 12 61 -16
82 -33 42 -35 56 -124 28 -178 -8 -16 -32 -42 -52 -57 -90 -69 -229 -2 -216
105 3 28 1 33 -6 22 -9 -12 -11 -11 -11 9 0 13 3 21 7 18 3 -4 15 7 25 23 22
38 23 47 1 29 -15 -13 -15 -12 -3 8 9 13 18 19 25 13 6 -5 20 -1 34 11 14 12
18 19 10 20 -8 0 -5 4 6 9 27 12 43 12 25 0z m-120 -285 c0 -8 -4 -15 -10 -15
-5 0 -10 7 -10 15 0 8 5 15 10 15 6 0 10 -7 10 -15z m294 -6 c-3 -5 -10 -7
-15 -3 -5 3 -7 10 -3 15 3 5 10 7 15 3 5 -3 7 -10 3 -15z m261 -38 c3 -5 1
-12 -5 -16 -5 -3 -10 1 -10 9 0 18 6 21 15 7z m-30 -221 c3 -5 -1 -10 -10 -10
-9 0 -13 5 -10 10 3 6 8 10 10 10 2 0 7 -4 10 -10z"/>
<path d="M2430 540 c0 -5 -9 -10 -21 -10 -11 0 -17 -4 -14 -10 3 -5 -1 -10 -9
-10 -10 0 -13 6 -9 17 6 15 5 16 -9 3 -11 -11 -12 -17 -4 -22 16 -11 58 -10
52 1 -4 5 10 4 29 -1 19 -6 32 -15 30 -19 -3 -4 2 -14 10 -22 20 -20 19 -28
-2 -21 -14 5 -15 4 -4 -4 16 -11 7 -32 -15 -32 -8 0 -14 -4 -14 -10 0 -13 13
-13 28 2 8 8 15 8 25 0 8 -7 17 -9 20 -5 4 3 7 -1 7 -10 0 -10 -7 -17 -15 -17
-8 0 -15 7 -15 16 0 8 -4 13 -9 10 -10 -7 -9 -25 2 -43 4 -7 0 -16 -10 -22
-10 -5 -15 -13 -11 -16 12 -13 65 56 71 90 3 19 2 47 -3 62 -4 15 -9 22 -9 16
-1 -7 -10 -13 -21 -13 -13 0 -18 5 -14 15 3 8 10 13 14 12 4 -1 7 3 7 8 -1 6
-6 9 -10 7 -5 -1 -6 2 -2 7 7 12 -26 31 -54 31 -12 0 -21 -4 -21 -10z m54 -9
c3 -5 -1 -12 -10 -15 -22 -9 -24 -8 -24 9 0 16 25 21 34 6z m56 -98 c0 -7 -7
-13 -15 -13 -8 0 -15 6 -15 13 0 8 7 14 15 14 8 0 15 -6 15 -14z"/>
<path d="M2313 475 c-8 -9 -9 -16 -3 -20 6 -3 13 1 16 10 9 21 2 26 -13 10z"/>
<path d="M2361 473 c0 -12 -7 -24 -13 -26 -7 -3 1 -6 17 -7 26 -1 27 -3 10
-10 -17 -7 -18 -9 -2 -9 13 -1 15 -5 8 -18 -5 -10 -12 -26 -15 -37 -6 -18 -7
-18 -27 0 -11 10 -18 26 -16 36 3 11 0 18 -10 18 -8 0 -12 -4 -9 -9 4 -5 0
-12 -6 -14 -10 -4 -10 -6 0 -6 6 -1 12 -8 12 -17 0 -8 5 -12 10 -9 6 3 10 2
10 -4 0 -5 -7 -11 -16 -13 -13 -2 -10 -8 11 -28 17 -16 24 -19 20 -8 -11 27
14 31 27 4 11 -26 11 -26 26 -5 15 22 20 40 21 81 1 16 8 28 19 31 13 4 13 5
-4 6 -18 1 -23 -8 -34 -59 -17 -80 -26 -69 -10 14 11 62 13 64 38 60 25 -5 26
-4 8 9 -13 10 -15 16 -8 21 7 4 12 2 12 -3 0 -6 4 -11 10 -11 5 0 7 7 3 15 -8
22 -38 13 -36 -10 1 -20 1 -20 -14 0 -13 16 -15 17 -10 3 4 -12 1 -18 -8 -18
-7 0 -16 10 -18 23 -4 22 -4 22 -6 0z"/>
<path d="M2435 336 c-11 -8 -16 -19 -12 -30 7 -17 37 -23 37 -6 0 5 -6 7 -13
4 -8 -3 -14 2 -14 11 0 9 6 14 14 11 7 -3 13 1 13 9 0 18 -2 18 -25 1z"/>
<path d="M1702 570 c0 -14 2 -19 5 -12 2 6 2 18 0 25 -3 6 -5 1 -5 -13z"/>
<path d="M850 576 c0 -9 30 -14 35 -6 4 6 -3 10 -14 10 -12 0 -21 -2 -21 -4z"/>
<path d="M930 570 l35 -7 -40 -3 c-38 -3 -39 -3 -8 -7 20 -3 42 2 55 11 22 15
21 16 -27 15 -48 -2 -48 -2 -15 -9z"/>
<path d="M1557 559 c-9 -6 -27 -7 -38 -4 -15 5 -19 4 -15 -4 10 -15 39 -14 62
4 22 17 17 19 -9 4z"/>
<path d="M503 545 c0 -8 4 -12 9 -9 5 3 6 10 3 15 -9 13 -12 11 -12 -6z"/>
<path d="M580 551 c0 -6 4 -13 10 -16 6 -3 7 1 4 9 -7 18 -14 21 -14 7z"/>
<path d="M1438 543 c7 -3 16 -2 19 1 4 3 -2 6 -13 5 -11 0 -14 -3 -6 -6z"/>
<path d="M290 530 c-10 -6 -11 -10 -2 -10 6 0 12 -5 12 -11 0 -6 -6 -9 -13 -6
-9 3 -11 -6 -9 -34 2 -22 8 -39 13 -39 5 0 9 -5 9 -11 0 -5 -4 -7 -10 -4 -5 3
-10 2 -10 -4 0 -5 6 -11 13 -14 6 -2 9 -8 5 -12 -4 -4 -15 -2 -25 6 -11 9 -14
10 -9 2 11 -19 16 -53 8 -53 -4 0 -9 -11 -10 -25 -3 -36 12 -31 27 11 18 49
64 76 119 71 24 -3 52 -13 62 -22 18 -16 24 -14 21 7 0 4 7 5 17 1 14 -5 15
-3 5 7 -13 14 -165 31 -157 18 3 -5 -2 -8 -10 -8 -9 0 -16 6 -16 13 0 15 171
18 182 3 11 -16 38 -15 38 1 0 18 51 14 58 -5 2 -7 -2 -10 -11 -6 -9 3 -28 -1
-44 -10 -15 -8 -21 -16 -13 -16 12 0 11 -4 -4 -15 -16 -12 -20 -28 -20 -80 -1
-37 3 -65 9 -65 6 0 9 19 7 44 -8 99 75 162 165 124 15 -6 31 -11 36 -10 4 1
6 -1 6 -5 -3 -20 2 -24 15 -14 11 9 13 -3 14 -74 0 -47 -3 -83 -8 -80 -4 2
-15 -4 -25 -15 -10 -11 -31 -23 -49 -29 -40 -11 -226 -14 -226 -3 0 5 15 10
33 11 17 2 39 3 47 4 8 0 26 -3 40 -7 25 -8 25 -8 5 9 -20 17 -20 17 0 9 11
-4 38 -9 61 -12 109 -11 155 141 60 199 -38 23 -67 24 -106 4 -51 -26 -75 -99
-49 -147 14 -26 8 -31 -23 -19 -20 7 -27 5 -37 -11 -7 -11 -15 -17 -18 -14 -4
3 2 15 13 27 20 22 25 89 9 123 -7 15 -5 18 6 11 8 -5 11 -5 6 1 -5 5 -12 9
-15 9 -4 1 -21 9 -39 18 -43 23 -73 21 -114 -6 -58 -39 -65 -122 -14 -173 19
-18 35 -24 71 -24 50 0 51 4 29 65 -5 16 -5 17 4 5 13 -18 21 -10 31 32 6 28
8 30 15 14 6 -13 3 -29 -8 -48 -9 -16 -12 -26 -7 -23 6 3 10 1 10 -4 0 -6 -4
-11 -10 -11 -5 0 -7 -6 -4 -14 12 -31 -55 -44 -110 -21 -14 6 -17 5 -12 -3 4
-7 1 -12 -8 -12 -9 0 -16 5 -16 10 0 6 5 10 12 10 6 0 4 8 -6 19 -21 23 -42
18 -49 -10 -5 -17 -3 -18 9 -8 8 6 18 9 21 5 4 -4 1 -11 -6 -15 -24 -15 6 -22
110 -25 55 -2 103 -6 106 -10 4 -3 31 -6 62 -6 43 0 52 3 41 11 -12 9 -12 10
3 5 43 -14 98 -18 109 -8 7 5 24 12 38 14 25 3 25 4 26 108 1 140 -6 217 -17
199 -7 -11 -9 -11 -9 -1 0 9 -10 12 -34 8 -47 -8 -65 15 -37 43 l21 21 -23 -1
c-12 -1 -87 0 -167 1 -97 1 -146 -2 -148 -9 -2 -6 -9 -8 -15 -4 -7 4 -6 0 1
-10 29 -35 -24 -85 -56 -53 -17 16 0 62 25 69 14 4 13 5 -5 6 -13 0 -20 6 -17
11 8 12 4 12 -15 0z m157 -37 c3 -8 -7 -12 -31 -11 -24 1 -36 6 -36 15 0 18
62 14 67 -4z m113 2 c0 -7 -18 -12 -50 -14 -37 -1 -50 2 -50 13 0 10 14 14 50
14 33 0 50 -5 50 -13z m60 -6 c0 -5 -11 -9 -25 -9 -28 0 -34 16 -7 23 20 4 32
-1 32 -14z m50 6 c0 -8 -9 -15 -20 -15 -11 0 -20 7 -20 15 0 8 9 15 20 15 11
0 20 -7 20 -15z m-106 -33 c2 -4 -14 -6 -37 -4 -68 5 -76 10 -20 11 28 0 54
-2 57 -7z m-99 -22 c-8 -12 -85 -13 -85 -1 0 5 20 9 45 9 27 1 43 -3 40 -8z
m75 6 c0 -11 -19 -15 -25 -6 -3 5 1 10 9 10 9 0 16 -2 16 -4z m130 -6 c0 -5
-16 -9 -35 -8 -19 1 -35 5 -35 10 0 4 16 8 35 8 19 0 35 -4 35 -10z m88 -21
c4 -11 2 -12 -9 -1 -18 16 -29 15 -29 -3 0 -8 5 -15 12 -15 6 0 9 -2 7 -4 -2
-2 -31 2 -64 9 -53 12 -56 14 -25 16 19 1 41 2 48 2 6 -1 12 5 12 13 0 18 42
3 48 -17z m12 -29 c0 -5 -4 -10 -10 -10 -5 0 -10 5 -10 10 0 6 5 10 10 10 6 0
10 -4 10 -10z m-312 -37 c40 -25 53 -84 27 -119 -13 -17 -14 -16 -4 11 8 22 8
38 -1 60 -7 17 -14 24 -17 18 -5 -15 -30 -17 -35 -4 -1 5 -21 -3 -43 -17 -31
-22 -40 -34 -41 -60 l-2 -33 34 50 c34 51 52 66 40 35 -5 -14 -4 -15 8 -5 10
8 16 9 21 1 9 -15 -5 -32 -21 -26 -8 3 -14 1 -14 -5 0 -6 -4 -8 -9 -5 -5 3
-16 -5 -25 -19 -18 -27 -21 -39 -7 -31 5 4 20 2 33 -3 20 -8 21 -10 5 -16 -51
-21 -112 41 -103 103 6 41 22 61 61 78 32 14 56 11 93 -13z m256 -6 c31 -31
33 -95 5 -131 -17 -22 -23 -24 -39 -14 -24 15 -17 27 13 21 20 -4 26 0 31 23
5 18 3 30 -3 32 -6 2 -11 13 -11 23 0 13 4 18 12 13 7 -5 8 -3 4 5 -10 16
-104 8 -121 -10 -7 -8 -16 -25 -20 -37 -6 -21 -4 -23 17 -17 21 5 21 5 6 -8
-10 -8 -15 -17 -11 -20 10 -11 22 2 42 48 11 26 27 45 35 45 9 0 16 -5 16 -11
0 -5 -4 -8 -10 -4 -5 3 -19 -17 -31 -45 -12 -27 -25 -50 -30 -50 -5 0 -9 -5
-9 -12 0 -6 10 -3 23 8 12 10 19 15 15 10 -4 -5 -3 -15 3 -23 9 -10 6 -13 -15
-13 -30 0 -73 40 -82 77 -8 30 12 79 40 98 32 23 93 19 120 -8z m-91 -57 c-10
-11 -19 -20 -21 -20 -1 0 2 9 8 20 6 11 15 20 20 20 6 0 2 -9 -7 -20z m79 -29
c4 -25 2 -28 -15 -22 -10 4 -18 10 -18 14 1 4 1 14 1 22 0 28 28 15 32 -14z
m-295 -43 c-3 -8 -6 -5 -6 6 -1 11 2 17 5 13 3 -3 4 -12 1 -19z m123 -28 c0
-5 -4 -10 -10 -10 -5 0 -10 5 -10 10 0 6 5 10 10 10 6 0 10 -4 10 -10z m236
-27 c-10 -10 -19 5 -10 18 6 11 8 11 12 0 2 -7 1 -15 -2 -18z m-26 -3 c0 -5
-8 -10 -17 -10 -15 0 -16 2 -3 10 19 12 20 12 20 0z"/>
<path d="M380 350 c13 -9 13 -11 0 -21 -13 -9 -13 -10 0 -6 22 6 25 37 3 37
-15 0 -16 -2 -3 -10z"/>
<path d="M343 338 c-22 -29 -24 -41 -3 -20 12 13 20 25 17 28 -2 2 -9 -1 -14
-8z"/>
<path d="M1348 533 c12 -2 30 -2 40 0 9 3 -1 5 -23 4 -22 0 -30 -2 -17 -4z"/>
<path d="M1618 533 c18 -2 45 -2 60 0 15 2 0 4 -33 4 -33 0 -45 -2 -27 -4z"/>
<path d="M1253 523 c9 -2 23 -2 30 0 6 3 -1 5 -18 5 -16 0 -22 -2 -12 -5z"/>
<path d="M732 505 c15 -16 20 -17 30 -6 11 11 10 13 0 7 -7 -4 -21 -2 -30 5
-15 12 -15 11 0 -6z"/>
<path d="M1183 513 c9 -2 25 -2 35 0 9 3 1 5 -18 5 -19 0 -27 -2 -17 -5z"/>
<path d="M1105 500 c-25 -11 1 -11 35 0 20 6 21 8 5 8 -11 0 -29 -3 -40 -8z"/>
<path d="M1843 499 c7 -4 32 -10 57 -14 52 -9 239 -72 258 -87 9 -8 12 -6 12
6 0 31 -29 73 -57 84 -29 12 -290 22 -270 11z m293 -44 c27 -26 14 -34 -28
-16 -24 10 -51 21 -61 25 -10 3 -16 10 -13 15 8 12 84 -6 102 -24z"/>
<path d="M1712 477 c-22 -23 -22 -24 -3 -41 29 -26 71 -14 71 19 0 14 -8 29
-19 35 -26 13 -24 14 -49 -13z m54 -8 c3 -6 -1 -18 -10 -27 -16 -16 -18 -16
-31 2 -8 10 -12 23 -9 27 7 13 42 11 50 -2z"/>
<path d="M760 480 c-13 -8 -12 -10 3 -10 9 0 17 5 17 10 0 12 -1 12 -20 0z"/>
<path d="M708 473 c7 -3 16 -2 19 1 4 3 -2 6 -13 5 -11 0 -14 -3 -6 -6z"/>
<path d="M929 472 c-24 -3 -95 -62 -73 -62 5 1 52 16 104 35 95 34 95 34 45
32 -27 -1 -62 -3 -76 -5z"/>
<path d="M1886 426 c-79 -29 -128 -99 -130 -183 -1 -66 39 -127 104 -161 58
-30 135 -27 182 8 20 14 33 19 36 12 2 -6 10 -8 18 -5 16 6 20 -13 4 -20 -6
-3 -5 -4 2 -3 21 4 21 27 0 33 -20 5 -20 6 5 51 32 60 29 145 -6 193 -19 26
-21 33 -10 41 11 8 10 9 -3 4 -10 -3 -33 3 -50 14 -46 27 -105 33 -152 16z
m114 -12 c73 -16 127 -104 118 -189 -15 -125 -168 -195 -273 -124 -95 66 -101
216 -11 283 55 41 90 47 166 30z"/>
<path d="M1860 388 c-18 -13 -42 -35 -53 -50 -26 -35 -33 -114 -14 -159 24
-58 127 -124 127 -82 0 14 -2 15 -9 5 -7 -11 -9 -11 -14 2 -3 8 -1 16 4 18 5
2 11 13 12 26 0 12 5 22 10 22 4 0 7 -12 6 -27 -1 -16 -1 -37 0 -48 2 -20 2
-20 11 0 9 20 9 20 10 0 1 -20 1 -20 10 0 9 20 9 20 10 0 1 -18 2 -18 11 3 5
13 6 29 2 35 -13 21 -12 37 3 37 8 0 14 -10 14 -26 l0 -25 30 21 c17 12 35 18
42 14 10 -6 10 -4 0 8 -8 10 -21 14 -34 10 -15 -4 -19 -1 -16 9 6 15 11 15 41
4 26 -10 21 10 -7 29 -16 10 -27 12 -31 6 -9 -15 -25 -2 -19 14 4 10 -5 14
-33 14 -65 0 -73 2 -73 12 0 6 8 10 18 11 10 0 12 3 5 6 -24 9 -13 20 21 20
26 0 36 -5 40 -21 4 -12 9 -17 13 -11 5 6 21 11 37 12 30 1 54 18 43 30 -4 4
-13 1 -19 -5 -15 -15 -41 -16 -36 -1 2 6 8 11 13 11 6 0 18 4 27 9 12 7 20 4
27 -8 6 -10 11 -13 11 -6 0 18 -49 72 -81 88 -43 23 -120 19 -159 -7z m62 3
c7 10 8 8 3 -8 -3 -12 -2 -24 4 -27 5 -3 7 -15 4 -26 -7 -27 -23 -15 -23 17 0
32 -9 25 -16 -11 -2 -14 0 -26 5 -26 5 0 7 -9 4 -20 -4 -16 -13 -20 -37 -19
-17 2 -42 -1 -56 -5 -14 -4 -20 -4 -14 1 6 4 10 16 8 26 -1 10 6 27 16 37 10
10 15 22 12 26 -4 4 -1 4 6 0 6 -4 12 -2 12 4 0 6 4 9 9 6 5 -3 12 1 15 10 3
8 10 12 16 9 5 -3 10 0 11 7 0 10 2 10 6 -1 5 -11 7 -11 15 0z m52 -7 c3 -8 1
-16 -4 -19 -6 -4 -10 -16 -10 -28 -1 -19 -3 -18 -14 8 -7 17 -11 35 -9 41 5
15 31 13 37 -2z m91 -35 c11 -17 -3 -23 -21 -9 -13 12 -17 11 -25 -1 -5 -8 -9
-9 -9 -3 0 5 6 16 13 23 10 10 9 12 -3 9 -8 -2 -17 -14 -20 -28 -3 -14 -10
-23 -15 -20 -13 7 -16 30 -3 30 6 0 8 11 4 25 l-7 26 40 -21 c22 -11 43 -25
46 -31z m-187 -99 c12 0 9 -4 -8 -14 -14 -7 -29 -9 -34 -4 -6 4 -19 8 -30 9
-18 1 -17 2 4 9 14 4 31 6 38 4 8 -2 21 -4 30 -4z m-25 -33 c35 0 35 -14 -1
-22 -16 -3 -29 -12 -29 -20 0 -11 4 -12 14 -4 15 13 18 -2 3 -17 -6 -6 -3 -10
11 -11 13 -1 23 5 26 18 3 10 9 19 13 19 12 0 5 -33 -8 -38 -9 -3 -9 -9 -1
-24 9 -16 8 -19 -3 -15 -7 2 -12 9 -11 15 2 6 -4 9 -12 6 -15 -6 -58 53 -49
68 3 4 1 8 -4 8 -5 0 -9 7 -9 15 0 11 5 14 16 9 9 -4 28 -7 44 -7z m77 3 c-22
-7 -20 -8 15 -9 30 0 36 2 25 10 -12 8 -11 10 5 7 11 -2 20 -10 20 -18 0 -11
-14 -16 -52 -18 -48 -3 -51 -1 -46 18 4 14 13 20 32 19 l26 -1 -25 -8z m-63
-62 c-3 -7 -5 -2 -5 12 0 14 2 19 5 13 2 -7 2 -19 0 -25z m93 -28 c0 -5 -5
-10 -11 -10 -5 0 -7 5 -4 10 3 6 8 10 11 10 2 0 4 -4 4 -10z"/>
<path d="M1847 323 c6 -16 5 -17 -13 -3 -18 14 -18 14 -5 -2 18 -24 31 -23 31
2 0 11 -4 20 -10 20 -5 0 -6 -8 -3 -17z"/>
<path d="M1869 312 c-3 -20 -2 -29 4 -23 5 5 7 19 5 32 -3 20 -5 19 -9 -9z"/>
<path d="M2101 274 c0 -11 3 -14 6 -6 3 7 2 16 -1 19 -3 4 -6 -2 -5 -13z"/>
<path d="M1948 273 c7 -3 16 -2 19 1 4 3 -2 6 -13 5 -11 0 -14 -3 -6 -6z"/>
<path d="M2049 143 c-1 -5 -1 -12 0 -17 1 -5 -5 -6 -14 -2 -9 3 -13 2 -10 -4
6 -9 -8 -14 -27 -11 -5 0 -8 -4 -8 -9 0 -15 11 -12 48 10 18 11 30 25 27 30
-7 12 -15 13 -16 3z"/>
<path d="M1300 414 c0 -19 27 -47 38 -40 15 9 16 36 1 36 -5 0 -7 -4 -4 -10 3
-5 2 -10 -4 -10 -5 0 -15 8 -20 18 -6 9 -11 12 -11 6z"/>
<path d="M1435 408 c-40 -14 -94 -65 -111 -105 -8 -18 -14 -51 -14 -73 0 -51
25 -114 41 -104 8 5 10 2 6 -8 -9 -25 46 -68 59 -46 4 7 3 10 -1 5 -5 -4 -23
13 -40 38 -18 24 -35 42 -39 38 -9 -9 -8 2 3 31 7 18 6 28 -5 36 -19 17 -18
44 6 90 22 43 36 55 45 41 3 -6 12 -8 20 -5 8 4 12 11 8 17 -4 6 0 8 10 4 8
-3 18 0 20 7 4 10 -1 12 -16 10 -15 -3 -13 0 8 10 17 9 46 15 65 14 l35 -1
-32 -6 c-26 -5 -30 -9 -23 -21 5 -8 10 -10 10 -4 0 7 15 14 34 16 21 2 32 0
29 -6 -4 -5 1 -7 12 -2 14 5 15 4 7 -7 -8 -10 -6 -13 8 -13 10 0 16 4 14 8
-13 21 6 5 21 -18 14 -21 15 -28 4 -35 -8 -4 -19 -3 -27 3 -9 8 -10 13 -2 18
11 7 -18 11 -96 13 -50 2 -89 -22 -112 -69 -12 -25 -21 -34 -34 -31 -11 3 -18
0 -18 -8 0 -8 8 -11 23 -8 18 4 19 3 7 -6 -10 -7 -11 -11 -2 -11 6 0 12 -7 12
-15 0 -19 30 -79 36 -72 2 2 -2 17 -11 33 l-15 29 55 3 c44 2 55 6 55 20 0 10
-3 13 -8 7 -4 -5 -29 -11 -57 -12 -37 -2 -44 0 -25 6 l25 8 -25 5 c-14 3 40 5
120 4 93 -1 143 -5 140 -11 -3 -5 -34 -10 -70 -10 -36 0 -68 5 -72 10 -4 6 -8
-7 -8 -27 0 -20 5 -40 11 -44 9 -5 10 1 5 20 -6 25 -5 26 39 26 25 0 45 -4 45
-10 0 -5 7 -7 16 -3 14 5 15 3 4 -18 -7 -13 -29 -41 -49 -62 l-36 -39 37 22
c23 13 45 38 58 66 35 72 55 70 25 -4 -17 -40 -79 -104 -91 -93 -4 3 -4 0 0
-7 6 -10 12 -9 29 3 19 13 23 13 43 -6 20 -19 23 -19 38 -4 21 21 20 32 -3 47
-16 10 -18 16 -9 32 20 36 21 125 3 171 -36 95 -145 146 -240 113z m-31 -43
c-4 -8 -10 -12 -15 -9 -11 6 -2 24 11 24 5 0 7 -7 4 -15z m106 -23 c0 -4 -5
-13 -12 -20 -9 -9 -8 -12 5 -12 9 0 17 7 17 15 0 19 13 19 49 0 24 -12 48 -52
37 -62 -9 -9 -216 -10 -216 -1 0 19 70 80 85 74 8 -3 15 -1 15 4 0 6 5 10 10
10 6 0 10 -4 10 -8z m146 -24 c4 -7 3 -8 -4 -4 -7 4 -12 2 -12 -3 0 -6 7 -11
16 -11 11 0 14 -6 9 -21 -5 -15 -4 -19 4 -15 6 4 11 0 11 -8 0 -18 -16 -21
-25 -6 -4 6 -10 8 -15 5 -5 -3 -12 0 -16 6 -4 7 -3 9 3 6 6 -4 14 0 17 9 4 11
2 15 -8 11 -22 -9 -28 5 -9 25 19 21 20 21 29 6z m-329 -130 c-3 -8 -6 -5 -6
6 -1 11 2 17 5 13 3 -3 4 -12 1 -19z m54 -95 c13 -16 12 -17 -3 -4 -10 7 -18
15 -18 17 0 8 8 3 21 -13z m294 -43 c-5 -8 -11 -8 -17 -2 -6 6 -7 16 -3 22 5
8 11 8 17 2 6 -6 7 -16 3 -22z"/>
<path d="M982 390 c-18 -11 -30 -25 -27 -30 3 -6 -1 -7 -9 -4 -9 3 -13 10 -10
15 3 5 -3 6 -12 2 -11 -4 -13 -8 -6 -11 8 -2 6 -15 -8 -42 -11 -22 -20 -45
-20 -52 0 -7 9 6 19 28 10 23 24 45 30 48 17 11 13 -2 -11 -35 -29 -38 -31
-123 -4 -163 10 -15 15 -30 12 -33 -3 -3 -15 14 -26 38 -11 24 -20 37 -20 29
0 -23 38 -80 52 -78 7 2 12 -2 13 -9 0 -6 4 -15 9 -20 5 -5 6 -2 1 6 -5 9 -3
12 6 9 8 -3 13 -10 12 -16 -1 -5 8 -8 20 -5 18 4 19 3 7 -6 -12 -9 -8 -10 15
-5 36 8 45 14 22 14 -9 0 -17 5 -17 11 0 5 -4 7 -10 4 -14 -9 -32 4 -24 17 4
6 10 5 16 -3 5 -9 6 -4 2 14 -4 17 -2 27 5 27 6 0 11 -11 11 -24 0 -13 7 -26
15 -30 8 -3 15 0 15 6 0 6 6 6 16 -3 13 -11 17 -10 26 4 12 22 30 13 21 -10
-10 -25 51 20 82 61 29 39 32 58 8 49 -13 -4 -12 -1 5 14 28 26 28 36 0 27
-21 -6 -21 -6 -4 11 17 17 17 28 0 69 -5 15 -4 17 6 11 9 -6 11 -4 6 4 -5 7
-11 10 -14 7 -8 -8 -43 25 -37 35 3 4 0 11 -6 15 -8 5 -9 3 -4 -6 6 -10 4 -11
-11 -5 -38 17 -121 17 -154 0 -17 -9 -34 -14 -37 -12 -6 6 31 27 66 38 21 6
22 7 6 8 -11 1 -35 -8 -53 -19z m151 -24 c33 -13 87 -68 87 -87 0 -6 -7 -17
-16 -26 -8 -9 -13 -22 -10 -29 3 -8 -4 -18 -14 -24 -16 -9 -20 -7 -21 7 0 14
-2 13 -9 -4 -5 -13 -12 -23 -15 -23 -4 0 -4 4 -1 8 3 5 -8 16 -25 26 -28 17
-33 28 -29 74 1 16 -4 22 -20 22 -12 0 -19 4 -15 9 3 5 1 12 -5 16 -5 3 -10
-1 -10 -9 0 -21 -19 -20 -42 1 -17 15 -18 15 -13 1 4 -9 18 -24 31 -33 14 -9
22 -20 19 -25 -3 -4 3 -6 14 -3 21 5 37 -25 22 -40 -7 -7 -16 -6 -28 5 -30 25
-41 29 -46 14 -4 -10 0 -12 14 -9 13 4 19 0 19 -11 0 -20 -13 -20 -48 -2 -27
14 -28 13 -29 -12 -1 -15 1 -21 4 -14 7 17 33 15 33 -3 0 -18 12 -19 27 -4 7
7 10 4 9 -13 -1 -22 -13 -38 -29 -38 -4 0 -7 8 -5 17 2 12 -6 19 -27 23 -27 5
-30 9 -31 45 -2 42 14 88 26 80 4 -3 7 3 6 13 -1 21 75 62 116 62 16 0 43 -6
61 -14z m-63 -76 c0 -5 -9 -10 -21 -10 -11 0 -17 5 -14 10 3 6 13 10 21 10 8
0 14 -4 14 -10z m26 -90 c8 0 14 -8 14 -17 0 -16 -2 -16 -11 -3 -7 11 -9 5 -8
-25 2 -57 -3 -67 -10 -20 -5 32 -11 41 -28 43 -13 2 -23 8 -23 14 0 6 9 8 20
5 14 -4 20 0 21 11 0 11 2 12 6 5 2 -7 11 -13 19 -13z m64 -35 c0 -8 -4 -15
-10 -15 -5 0 -7 7 -4 15 4 8 8 15 10 15 2 0 4 -7 4 -15z m40 0 c0 -2 -7 -5
-15 -9 -9 -3 -15 0 -15 9 0 9 6 12 15 9 8 -4 15 -7 15 -9z m-240 -6 c0 -7 9
-20 20 -29 13 -11 17 -21 10 -25 -14 -9 -28 2 -45 36 -14 26 -14 29 0 29 8 0
15 -5 15 -11z m103 4 c3 -5 -1 -14 -9 -21 -12 -11 -14 -9 -14 8 0 20 14 27 23
13z m87 -60 c0 -2 -9 5 -21 16 -12 11 -18 25 -14 31 5 7 12 2 21 -15 8 -15 14
-29 14 -32z m30 27 c0 -5 -2 -10 -4 -10 -3 0 -8 5 -11 10 -3 6 -1 10 4 10 6 0
11 -4 11 -10z"/>
<path d="M1000 350 c-13 -8 -12 -10 3 -10 9 0 17 5 17 10 0 12 -1 12 -20 0z"/>
<path d="M1129 328 c-1 -7 -1 -16 0 -20 0 -5 -3 -8 -7 -8 -5 0 -13 -10 -19
-23 -9 -18 -6 -25 13 -40 14 -10 24 -13 24 -7 0 6 5 8 11 5 6 -4 9 0 7 11 -2
11 2 18 10 17 6 -2 12 2 12 7 0 6 4 9 9 7 5 -1 9 3 10 8 0 6 -13 9 -29 7 -32
-3 -40 14 -18 36 9 9 8 12 -5 12 -9 0 -18 -6 -18 -12z m15 -63 c-4 -8 -12 -15
-20 -15 -17 0 -18 17 -1 23 22 9 27 7 21 -8z"/>
<path d="M1170 320 c0 -5 5 -10 11 -10 5 0 7 5 4 10 -3 6 -8 10 -11 10 -2 0
-4 -4 -4 -10z"/>
<path d="M1098 403 c6 -2 18 -2 25 0 6 3 1 5 -13 5 -14 0 -19 -2 -12 -5z"/>
<path d="M1641 404 c-1 -16 26 -37 39 -29 5 3 10 14 9 23 0 11 -3 12 -6 5 -2
-7 -11 -13 -18 -13 -7 0 -16 6 -18 13 -4 7 -6 8 -6 1z"/>
<path d="M1789 393 c-13 -16 -12 -17 4 -4 16 13 21 21 13 21 -2 0 -10 -8 -17
-17z"/>
<path d="M1205 370 c-3 -5 -2 -10 4 -10 5 0 13 5 16 10 3 6 2 10 -4 10 -5 0
-13 -4 -16 -10z"/>
<path d="M2212 183 c-1 -104 2 -183 7 -183 5 0 7 18 4 40 -4 28 -2 40 7 40 9
0 11 13 5 53 -4 28 -11 92 -15 142 -6 78 -7 66 -8 -92z"/>
<path d="M1351 311 c-8 -14 -7 -20 4 -24 9 -4 12 -1 8 9 -3 7 0 14 6 14 6 0
11 5 11 10 0 17 -19 11 -29 -9z"/>
<path d="M269 253 c5 -18 7 -34 3 -37 -3 -3 0 -6 7 -6 12 0 5 48 -10 64 -5 5
-5 -4 0 -21z"/>
<path d="M882 225 c0 -16 2 -22 5 -12 2 9 2 23 0 30 -3 6 -5 -1 -5 -18z"/>
<path d="M1252 230 c0 -14 2 -19 5 -12 2 6 2 18 0 25 -3 6 -5 1 -5 -13z"/>
<path d="M2247 228 c-7 -4 9 -8 36 -8 26 0 47 2 47 4 0 8 -71 12 -83 4z"/>
<path d="M1598 223 c12 -2 30 -2 40 0 9 3 -1 5 -23 4 -22 0 -30 -2 -17 -4z"/>
<path d="M2624 211 c-39 -24 -58 -69 -50 -116 4 -19 11 -35 16 -35 5 0 4 15
-1 34 -10 36 0 78 22 92 9 5 10 2 6 -10 -4 -11 -3 -15 4 -11 6 4 8 13 5 21 -4
9 4 18 20 24 43 17 65 11 100 -24 36 -36 41 -37 24 -5 -13 23 -61 49 -92 49
-13 0 -37 -9 -54 -19z"/>
<path d="M2340 194 c-7 -8 -23 -14 -34 -13 -12 1 -32 -3 -46 -9 -22 -9 -23
-11 -7 -17 9 -4 17 -15 17 -25 0 -13 5 -17 20 -13 18 5 19 7 4 17 -15 11 -14
13 1 26 12 10 19 10 27 2 9 -9 6 -12 -12 -13 -17 -1 -20 -3 -7 -6 9 -2 17 -9
17 -14 0 -5 4 -9 9 -9 14 0 21 44 8 52 -8 5 -5 8 8 8 19 0 20 -6 17 -90 -2
-63 0 -90 8 -90 8 0 11 26 9 88 -4 124 -10 141 -39 106z"/>
<path d="M2680 184 c0 -15 6 -24 15 -24 19 0 19 -10 -1 -24 -14 -11 -14 -13 0
-25 14 -12 16 -12 10 3 -4 11 -1 16 14 16 23 0 52 -25 52 -44 0 -20 -42 -53
-80 -64 -26 -8 -29 -10 -12 -11 55 -2 114 59 111 116 -1 12 -3 10 -8 -7 l-7
-25 -7 28 c-5 17 -12 25 -19 21 -8 -5 -9 -2 -5 9 5 13 1 17 -14 17 -14 0 -19
5 -16 14 3 8 -2 16 -14 19 -15 4 -19 0 -19 -19z"/>
<path d="M2255 190 c-3 -5 -1 -10 4 -10 6 0 11 5 11 10 0 6 -2 10 -4 10 -3 0
-8 -4 -11 -10z"/>
<path d="M2648 188 c10 -13 10 -17 -1 -21 -8 -3 -19 -24 -25 -46 -8 -33 -7
-41 4 -41 17 0 19 -17 2 -22 -7 -3 -6 -7 5 -11 9 -3 17 -2 17 3 0 6 5 10 10
10 6 0 10 -7 10 -15 0 -8 7 -15 15 -15 9 0 12 6 9 15 -4 10 0 15 11 15 9 0 13
-5 9 -11 -4 -7 -1 -10 7 -7 8 3 13 16 12 29 -1 13 0 18 3 12 7 -16 24 -17 24
-2 0 6 -6 17 -14 24 -15 15 -36 2 -36 -22 0 -21 -58 -16 -70 6 -13 25 -13 31
1 31 5 0 7 -4 4 -10 -3 -5 3 -10 15 -10 12 0 18 -4 15 -10 -3 -5 1 -10 10 -10
14 0 14 3 -2 30 -10 17 -23 28 -30 26 -7 -3 -13 1 -13 9 0 9 6 12 16 8 12 -4
15 0 12 17 -1 13 -10 26 -18 28 -12 4 -13 3 -2 -10z"/>
<path d="M2827 160 c6 -9 13 -38 15 -65 l3 -50 5 57 c3 31 3 55 1 52 -2 -2
-11 2 -20 9 -14 10 -14 10 -4 -3z"/>
<path d="M1219 133 c-8 -14 -34 -39 -58 -55 -50 -31 -44 -39 6 -9 22 14 33 16
36 8 3 -9 8 -9 18 1 11 10 10 12 -4 12 -16 0 -15 3 4 30 13 16 20 32 17 35 -2
3 -11 -7 -19 -22z"/>
<path d="M486 122 c-4 -7 -3 -19 4 -27 10 -12 39 -15 124 -15 99 0 112 2 123
20 8 12 9 21 3 25 -6 3 -10 0 -10 -7 0 -10 -27 -13 -115 -14 -97 -1 -115 1
-117 15 -3 12 -5 13 -12 3z"/>
<path d="M910 80 c0 -5 7 -10 15 -10 8 0 15 5 15 10 0 6 -7 10 -15 10 -8 0
-15 -4 -15 -10z"/>
<path d="M1307 83 c-7 -12 11 -53 22 -53 18 0 31 36 19 48 -14 14 -35 16 -41
5z m33 -12 c0 -6 -4 -13 -10 -16 -5 -3 -10 1 -10 9 0 9 5 16 10 16 6 0 10 -4
10 -9z"/>
<path d="M2270 67 c0 -19 -4 -25 -15 -21 -8 4 -15 3 -15 -1 0 -15 35 -34 63
-35 22 0 27 4 27 24 0 13 2 30 3 38 2 7 2 10 0 6 -3 -5 -12 -8 -21 -9 -11 0
-12 -2 -4 -6 6 -2 12 -14 12 -26 0 -21 -1 -21 -17 3 -10 14 -18 28 -18 32 0 3
-3 10 -7 14 -5 4 -8 -5 -8 -19z m30 -37 c0 -5 -4 -10 -10 -10 -5 0 -10 5 -10
10 0 6 5 10 10 10 6 0 10 -4 10 -10z"/>
<path d="M635 70 c-139 -7 -142 -12 -6 -10 81 1 93 -1 88 -14 -9 -22 16 -15
25 7 4 9 13 17 19 17 8 0 8 -4 -1 -15 -7 -9 -10 -18 -6 -22 8 -8 13 -2 18 21
4 23 8 23 -137 16z"/>
<path d="M492 54 c-10 -18 -5 -54 7 -54 4 0 7 16 8 35 1 39 -2 43 -15 19z"/>
<path d="M1088 63 c7 -3 16 -2 19 1 4 3 -2 6 -13 5 -11 0 -14 -3 -6 -6z"/>
<path d="M1048 43 c12 -2 30 -2 40 0 9 3 -1 5 -23 4 -22 0 -30 -2 -17 -4z"/>
<path d="M1843 30 c-46 -28 -41 -35 7 -10 25 13 59 20 95 20 36 0 70 -7 95
-20 48 -25 53 -18 8 10 -46 28 -160 28 -205 0z"/>
<path d="M532 20 c0 -14 2 -19 5 -12 2 6 2 18 0 25 -3 6 -5 1 -5 -13z"/>
<path d="M2847 20 c-3 -11 -3 -20 -1 -20 2 0 8 9 14 20 6 11 7 20 2 20 -6 0
-12 -9 -15 -20z"/>
<path d="M1883 19 c-18 -5 -33 -11 -33 -12 0 -2 42 -3 94 -2 52 0 88 4 80 8
-23 13 -107 17 -141 6z"/>
<path d="M330 12 c0 -4 9 -8 20 -8 11 0 20 4 20 8 0 4 -9 8 -20 8 -11 0 -20
-4 -20 -8z"/>
</g>
</svg>
